<svg xmlns="http://www.w3.org/2000/svg" xmlns:xlink="http://www.w3.org/1999/xlink" width="500" zoomAndPan="magnify" viewBox="0 0 375 374.999991" height="500" preserveAspectRatio="xMidYMid meet" version="1.0"><defs><clipPath id="46b28cc468"><path d="M 3.75 186 L 92 186 L 92 197 L 3.75 197 Z M 3.75 186 " clip-rule="nonzero"/></clipPath></defs><path fill="#3c3c3b" d="M 195.632812 347.042969 C 180.277344 347.042969 165.253906 344.367188 150.980469 339.085938 C 148.476562 338.160156 147.195312 335.375 148.121094 332.871094 C 149.050781 330.363281 151.832031 329.089844 154.339844 330.011719 C 167.53125 334.890625 181.425781 337.367188 195.632812 337.367188 C 261.277344 337.367188 314.679688 283.96875 314.679688 218.332031 C 314.679688 152.6875 261.277344 99.285156 195.632812 99.285156 C 176.558594 99.285156 158.339844 103.660156 141.480469 112.292969 C 139.109375 113.507812 136.191406 112.566406 134.972656 110.191406 C 133.753906 107.8125 134.695312 104.898438 137.074219 103.675781 C 155.3125 94.34375 175.015625 89.609375 195.636719 89.609375 C 266.613281 89.609375 324.359375 147.355469 324.359375 218.332031 C 324.355469 289.300781 266.609375 347.042969 195.632812 347.042969 Z M 195.632812 347.042969 " fill-opacity="1" fill-rule="nonzero"/><path fill="#3c3c3b" d="M 194.480469 134.304688 C 191.808594 134.304688 189.640625 132.140625 189.640625 129.464844 L 189.640625 94.90625 C 189.640625 92.234375 191.808594 90.070312 194.480469 90.070312 C 197.152344 90.070312 199.320312 92.234375 199.320312 94.90625 L 199.320312 129.464844 C 199.320312 132.136719 197.152344 134.304688 194.480469 134.304688 Z M 194.480469 134.304688 " fill-opacity="1" fill-rule="nonzero"/><path fill="#3c3c3b" d="M 194.480469 347.042969 C 191.808594 347.042969 189.640625 344.878906 189.640625 342.207031 L 189.640625 307.648438 C 189.640625 304.972656 191.808594 302.808594 194.480469 302.808594 C 197.152344 302.808594 199.320312 304.972656 199.320312 307.648438 L 199.320312 342.207031 C 199.320312 344.878906 197.152344 347.042969 194.480469 347.042969 Z M 194.480469 347.042969 " fill-opacity="1" fill-rule="nonzero"/><path fill="#3c3c3b" d="M 280.207031 310.667969 C 278.945312 310.667969 277.679688 310.179688 276.730469 309.199219 L 252.671875 284.394531 C 250.8125 282.476562 250.859375 279.414062 252.777344 277.550781 C 254.695312 275.695312 257.761719 275.738281 259.621094 277.660156 L 283.679688 302.464844 C 285.539062 304.382812 285.492188 307.445312 283.574219 309.304688 C 282.632812 310.214844 281.417969 310.667969 280.207031 310.667969 Z M 280.207031 310.667969 " fill-opacity="1" fill-rule="nonzero"/><path fill="#3c3c3b" d="M 260.808594 163.09375 C 259.546875 163.09375 258.285156 162.601562 257.335938 161.621094 C 255.476562 159.703125 255.523438 156.640625 257.441406 154.78125 L 282.25 130.722656 C 284.164062 128.863281 287.230469 128.910156 289.089844 130.828125 C 290.949219 132.746094 290.902344 135.808594 288.984375 137.667969 L 264.175781 161.726562 C 263.238281 162.640625 262.023438 163.09375 260.808594 163.09375 Z M 260.808594 163.09375 " fill-opacity="1" fill-rule="nonzero"/><path fill="#3c3c3b" d="M 317.6875 223.621094 L 280.289062 223.621094 C 277.617188 223.621094 275.449219 221.457031 275.449219 218.785156 C 275.449219 216.113281 277.617188 213.945312 280.289062 213.945312 L 317.6875 213.945312 C 320.359375 213.945312 322.523438 216.113281 322.523438 218.785156 C 322.523438 221.457031 320.359375 223.621094 317.6875 223.621094 Z M 317.6875 223.621094 " fill-opacity="1" fill-rule="nonzero"/><path fill="#3c3c3b" d="M 187.160156 21.257812 L 204.121094 21.257812 L 204.121094 67.117188 L 187.160156 67.117188 Z M 187.160156 21.257812 " fill-opacity="1" fill-rule="nonzero"/><path fill="#3c3c3b" d="M 204.121094 71.957031 L 187.15625 71.957031 C 184.484375 71.957031 182.320312 69.792969 182.320312 67.117188 L 182.320312 21.257812 C 182.320312 18.582031 184.484375 16.417969 187.15625 16.417969 L 204.121094 16.417969 C 206.792969 16.417969 208.957031 18.582031 208.957031 21.257812 L 208.957031 67.117188 C 208.957031 69.792969 206.792969 71.957031 204.121094 71.957031 Z M 191.996094 62.28125 L 199.285156 62.28125 L 199.285156 26.09375 L 191.996094 26.09375 Z M 191.996094 62.28125 " fill-opacity="1" fill-rule="nonzero"/><path fill="#3c3c3b" d="M 229.476562 13.035156 C 229.476562 17.574219 222.964844 21.253906 214.921875 21.253906 L 176.351562 21.253906 C 168.308594 21.253906 161.800781 17.574219 161.800781 13.035156 C 161.800781 8.492188 168.308594 4.8125 176.351562 4.8125 L 214.921875 4.8125 C 222.964844 4.8125 229.476562 8.492188 229.476562 13.035156 Z M 229.476562 13.035156 " fill-opacity="1" fill-rule="nonzero"/><path fill="#3c3c3b" d="M 214.921875 26.09375 L 176.351562 26.09375 C 165.300781 26.09375 156.960938 20.480469 156.960938 13.035156 C 156.960938 5.589844 165.300781 -0.0234375 176.351562 -0.0234375 L 214.921875 -0.0234375 C 225.976562 -0.0234375 234.3125 5.589844 234.3125 13.035156 C 234.316406 20.476562 225.976562 26.09375 214.921875 26.09375 Z M 176.355469 9.652344 C 170.125 9.652344 166.796875 12.257812 166.636719 13.046875 C 166.792969 13.8125 170.117188 16.417969 176.355469 16.417969 L 214.921875 16.417969 C 221.15625 16.417969 224.484375 13.8125 224.640625 13.019531 C 224.484375 12.257812 221.148438 9.65625 214.921875 9.65625 L 176.355469 9.65625 Z M 176.355469 9.652344 " fill-opacity="1" fill-rule="nonzero"/><path fill="#3c3c3b" d="M 326.644531 69.488281 L 338.816406 81.3125 L 306.859375 114.207031 L 294.691406 102.386719 Z M 326.644531 69.488281 " fill-opacity="1" fill-rule="nonzero"/><path fill="#3c3c3b" d="M 306.871094 119.027344 C 305.65625 119.027344 304.441406 118.570312 303.5 117.65625 L 291.332031 105.835938 C 290.410156 104.941406 289.882812 103.71875 289.863281 102.433594 C 289.84375 101.152344 290.339844 99.914062 291.230469 98.996094 L 323.191406 66.097656 C 325.054688 64.183594 328.117188 64.140625 330.03125 66 L 342.199219 77.820312 C 343.121094 78.714844 343.648438 79.9375 343.667969 81.21875 C 343.6875 82.503906 343.191406 83.738281 342.300781 84.660156 L 310.34375 117.558594 C 309.394531 118.535156 308.132812 119.027344 306.871094 119.027344 Z M 301.542969 102.265625 L 306.773438 107.34375 L 331.984375 81.386719 L 326.757812 76.308594 Z M 301.542969 102.265625 " fill-opacity="1" fill-rule="nonzero"/><path fill="#3c3c3b" d="M 362.75 93.0625 C 359.585938 96.320312 352.347656 94.421875 346.574219 88.816406 L 318.914062 61.945312 C 313.144531 56.335938 311.039062 49.160156 314.203125 45.90625 C 317.367188 42.648438 324.601562 44.546875 330.371094 50.152344 L 358.03125 77.023438 C 363.800781 82.628906 365.910156 89.804688 362.75 93.0625 Z M 362.75 93.0625 " fill-opacity="1" fill-rule="nonzero"/><path fill="#3c3c3b" d="M 358.460938 99.492188 C 353.554688 99.492188 347.851562 96.796875 343.203125 92.285156 L 315.539062 65.414062 C 312.160156 62.128906 309.683594 58.222656 308.5625 54.40625 C 307.183594 49.699219 307.972656 45.371094 310.730469 42.53125 C 312.675781 40.53125 315.355469 39.472656 318.484375 39.472656 C 323.390625 39.472656 329.089844 42.167969 333.738281 46.679688 L 361.402344 73.550781 C 369.332031 81.253906 371.402344 91.089844 366.21875 96.433594 C 364.273438 98.433594 361.589844 99.492188 358.460938 99.492188 Z M 318.484375 49.152344 C 317.96875 49.152344 317.710938 49.25 317.660156 49.285156 C 317.238281 49.941406 317.816406 54.128906 322.285156 58.472656 L 349.945312 85.347656 C 353.125 88.433594 356.515625 89.816406 358.460938 89.816406 C 358.980469 89.816406 359.238281 89.714844 359.289062 89.683594 C 359.707031 89.03125 359.128906 84.835938 354.65625 80.492188 L 326.996094 53.621094 C 323.816406 50.535156 320.429688 49.152344 318.484375 49.152344 Z M 318.484375 49.152344 " fill-opacity="1" fill-rule="nonzero"/><path fill="#29abe3" d="M 195.636719 374.832031 C 183.855469 374.832031 172.109375 373.511719 160.722656 370.914062 C 158.121094 370.320312 156.488281 367.726562 157.085938 365.121094 C 157.679688 362.519531 160.261719 360.875 162.878906 361.480469 C 173.558594 363.917969 184.578125 365.152344 195.636719 365.152344 C 276.472656 365.152344 342.238281 299.390625 342.238281 218.554688 C 342.238281 137.71875 276.472656 71.957031 195.636719 71.957031 C 184.578125 71.957031 173.558594 73.195312 162.875 75.628906 C 160.269531 76.226562 157.675781 74.59375 157.082031 71.988281 C 156.488281 69.386719 158.117188 66.789062 160.722656 66.195312 C 172.109375 63.597656 183.855469 62.28125 195.636719 62.28125 C 281.808594 62.28125 351.914062 132.386719 351.914062 218.554688 C 351.914062 304.726562 281.808594 374.832031 195.636719 374.832031 Z M 195.636719 374.832031 " fill-opacity="1" fill-rule="nonzero"/><path fill="#29abe3" d="M 195.636719 223.394531 C 194.75 223.394531 193.867188 223.152344 193.09375 222.671875 C 191.667969 221.789062 190.796875 220.230469 190.796875 218.554688 L 190.796875 150.257812 C 190.796875 147.585938 192.964844 145.421875 195.636719 145.421875 C 198.308594 145.421875 200.472656 147.585938 200.472656 150.257812 L 200.472656 210.726562 L 236.234375 192.847656 C 238.625 191.652344 241.53125 192.621094 242.726562 195.011719 C 243.917969 197.402344 242.949219 200.308594 240.5625 201.503906 L 197.796875 222.882812 C 197.117188 223.222656 196.375 223.394531 195.636719 223.394531 Z M 195.636719 223.394531 " fill-opacity="1" fill-rule="nonzero"/><path fill="#3c3c3b" d="M 120.097656 124.671875 L 76.859375 124.671875 C 74.1875 124.671875 72.023438 122.507812 72.023438 119.835938 C 72.023438 117.164062 74.1875 114.996094 76.859375 114.996094 L 120.097656 114.996094 C 122.769531 114.996094 124.9375 117.164062 124.9375 119.835938 C 124.9375 122.507812 122.769531 124.671875 120.097656 124.671875 Z M 120.097656 124.671875 " fill-opacity="1" fill-rule="nonzero"/><path fill="#3c3c3b" d="M 131.09375 347.5 L 87.855469 347.5 C 85.183594 347.5 83.019531 345.335938 83.019531 342.664062 C 83.019531 339.988281 85.183594 337.824219 87.855469 337.824219 L 131.09375 337.824219 C 133.765625 337.824219 135.933594 339.988281 135.933594 342.664062 C 135.933594 345.335938 133.765625 347.5 131.09375 347.5 Z M 131.09375 347.5 " fill-opacity="1" fill-rule="nonzero"/><path fill="#3c3c3b" d="M 84.113281 237.113281 L 11.003906 237.113281 C 8.332031 237.113281 6.164062 234.945312 6.164062 232.273438 C 6.164062 229.601562 8.332031 227.433594 11.003906 227.433594 L 84.113281 227.433594 C 86.785156 227.433594 88.949219 229.601562 88.949219 232.273438 C 88.949219 234.945312 86.78125 237.113281 84.113281 237.113281 Z M 84.113281 237.113281 " fill-opacity="1" fill-rule="nonzero"/><path fill="#3c3c3b" d="M 89.511719 276.480469 L 16.40625 276.480469 C 13.730469 276.480469 11.566406 274.316406 11.566406 271.644531 C 11.566406 268.972656 13.730469 266.804688 16.40625 266.804688 L 89.511719 266.804688 C 92.1875 266.804688 94.351562 268.972656 94.351562 271.644531 C 94.351562 274.316406 92.183594 276.480469 89.511719 276.480469 Z M 89.511719 276.480469 " fill-opacity="1" fill-rule="nonzero"/><path fill="#3c3c3b" d="M 111.132812 315.425781 L 38.023438 315.425781 C 35.351562 315.425781 33.183594 313.257812 33.183594 310.585938 C 33.183594 307.914062 35.351562 305.75 38.023438 305.75 L 111.128906 305.75 C 113.800781 305.75 115.96875 307.914062 115.96875 310.585938 C 115.96875 313.257812 113.800781 315.425781 111.132812 315.425781 Z M 111.132812 315.425781 " fill-opacity="1" fill-rule="nonzero"/><path fill="#3c3c3b" d="M 98.480469 158.429688 L 29.664062 158.429688 C 26.992188 158.429688 24.828125 156.261719 24.828125 153.589844 C 24.828125 150.917969 26.992188 148.753906 29.664062 148.753906 L 98.480469 148.753906 C 101.152344 148.753906 103.316406 150.917969 103.316406 153.589844 C 103.316406 156.261719 101.152344 158.429688 98.480469 158.429688 Z M 98.480469 158.429688 " fill-opacity="1" fill-rule="nonzero"/><g clip-path="url(#46b28cc468)"><path fill="#3c3c3b" d="M 86.457031 196.671875 L 8.652344 196.671875 C 5.980469 196.671875 3.816406 194.507812 3.816406 191.835938 C 3.816406 189.164062 5.980469 186.996094 8.652344 186.996094 L 86.457031 186.996094 C 89.128906 186.996094 91.296875 189.164062 91.296875 191.835938 C 91.296875 194.507812 89.128906 196.671875 86.457031 196.671875 Z M 86.457031 196.671875 " fill-opacity="1" fill-rule="nonzero"/></g></svg>