<svg xmlns="http://www.w3.org/2000/svg" xmlns:xlink="http://www.w3.org/1999/xlink" width="500" zoomAndPan="magnify" viewBox="0 0 375 374.999991" height="500" preserveAspectRatio="xMidYMid meet" version="1.0"><defs><g/><clipPath id="4c7bb942a9"><path d="M 61 112.5 L 93 112.5 L 93 123 L 61 123 Z M 61 112.5 " clip-rule="nonzero"/></clipPath><clipPath id="97734dc487"><path d="M 61 137 L 140 137 L 140 262.5 L 61 262.5 Z M 61 137 " clip-rule="nonzero"/></clipPath></defs><path fill="#3c3c3b" d="M 76.753906 251.316406 C 70.609375 251.316406 64.601562 250.246094 58.894531 248.132812 C 57.890625 247.765625 57.378906 246.652344 57.75 245.648438 C 58.121094 244.644531 59.234375 244.136719 60.234375 244.503906 C 65.511719 246.457031 71.070312 247.445312 76.753906 247.445312 C 103.011719 247.445312 124.371094 226.085938 124.371094 199.832031 C 124.371094 173.574219 103.011719 152.214844 76.753906 152.214844 C 69.125 152.214844 61.835938 153.964844 55.09375 157.417969 C 54.144531 157.902344 52.976562 157.527344 52.488281 156.574219 C 52.003906 155.625 52.378906 154.457031 53.332031 153.972656 C 60.625 150.238281 68.503906 148.34375 76.753906 148.34375 C 105.144531 148.34375 128.242188 171.441406 128.242188 199.832031 C 128.242188 228.222656 105.144531 251.316406 76.753906 251.316406 Z M 76.753906 251.316406 " fill-opacity="1" fill-rule="nonzero"/><path fill="#3c3c3b" d="M 76.292969 166.222656 C 75.222656 166.222656 74.355469 165.355469 74.355469 164.285156 L 74.355469 150.460938 C 74.355469 149.394531 75.222656 148.527344 76.292969 148.527344 C 77.359375 148.527344 78.226562 149.394531 78.226562 150.460938 L 78.226562 164.285156 C 78.226562 165.355469 77.359375 166.222656 76.292969 166.222656 Z M 76.292969 166.222656 " fill-opacity="1" fill-rule="nonzero"/><path fill="#3c3c3b" d="M 76.292969 251.316406 C 75.222656 251.316406 74.355469 250.453125 74.355469 249.382812 L 74.355469 235.558594 C 74.355469 234.488281 75.222656 233.625 76.292969 233.625 C 77.359375 233.625 78.226562 234.488281 78.226562 235.558594 L 78.226562 249.382812 C 78.226562 250.453125 77.359375 251.316406 76.292969 251.316406 Z M 76.292969 251.316406 " fill-opacity="1" fill-rule="nonzero"/><path fill="#3c3c3b" d="M 110.582031 236.769531 C 110.078125 236.769531 109.570312 236.570312 109.191406 236.179688 L 99.570312 226.257812 C 98.824219 225.488281 98.84375 224.265625 99.613281 223.519531 C 100.378906 222.777344 101.605469 222.792969 102.347656 223.5625 L 111.972656 233.484375 C 112.714844 234.253906 112.695312 235.476562 111.929688 236.222656 C 111.554688 236.585938 111.066406 236.769531 110.582031 236.769531 Z M 110.582031 236.769531 " fill-opacity="1" fill-rule="nonzero"/><path fill="#3c3c3b" d="M 102.824219 177.738281 C 102.320312 177.738281 101.8125 177.539062 101.433594 177.148438 C 100.691406 176.382812 100.710938 175.15625 101.476562 174.414062 L 111.398438 164.789062 C 112.164062 164.046875 113.390625 164.0625 114.136719 164.832031 C 114.878906 165.597656 114.859375 166.824219 114.09375 167.566406 L 104.171875 177.191406 C 103.796875 177.554688 103.308594 177.738281 102.824219 177.738281 Z M 102.824219 177.738281 " fill-opacity="1" fill-rule="nonzero"/><path fill="#3c3c3b" d="M 125.574219 201.949219 L 110.617188 201.949219 C 109.546875 201.949219 108.679688 201.082031 108.679688 200.015625 C 108.679688 198.945312 109.546875 198.078125 110.617188 198.078125 L 125.574219 198.078125 C 126.644531 198.078125 127.511719 198.945312 127.511719 200.015625 C 127.511719 201.082031 126.644531 201.949219 125.574219 201.949219 Z M 125.574219 201.949219 " fill-opacity="1" fill-rule="nonzero"/><path fill="#3c3c3b" d="M 73.363281 121.003906 L 80.148438 121.003906 L 80.148438 139.347656 L 73.363281 139.347656 Z M 73.363281 121.003906 " fill-opacity="1" fill-rule="nonzero"/><path fill="#3c3c3b" d="M 80.148438 141.28125 L 73.363281 141.28125 C 72.292969 141.28125 71.429688 140.417969 71.429688 139.347656 L 71.429688 121.003906 C 71.429688 119.933594 72.292969 119.066406 73.363281 119.066406 L 80.148438 119.066406 C 81.21875 119.066406 82.082031 119.933594 82.082031 121.003906 L 82.082031 139.347656 C 82.082031 140.417969 81.21875 141.28125 80.148438 141.28125 Z M 75.300781 137.414062 L 78.214844 137.414062 L 78.214844 122.9375 L 75.300781 122.9375 Z M 75.300781 137.414062 " fill-opacity="1" fill-rule="nonzero"/><path fill="#3c3c3b" d="M 90.289062 117.714844 C 90.289062 119.53125 87.683594 121 84.46875 121 L 69.042969 121 C 65.824219 121 63.222656 119.53125 63.222656 117.714844 C 63.222656 115.898438 65.824219 114.425781 69.042969 114.425781 L 84.46875 114.425781 C 87.683594 114.425781 90.289062 115.898438 90.289062 117.714844 Z M 90.289062 117.714844 " fill-opacity="1" fill-rule="nonzero"/><g clip-path="url(#4c7bb942a9)"><path fill="#3c3c3b" d="M 84.46875 122.9375 L 69.042969 122.9375 C 64.621094 122.9375 61.285156 120.691406 61.285156 117.714844 C 61.285156 114.734375 64.621094 112.492188 69.042969 112.492188 L 84.46875 112.492188 C 88.890625 112.492188 92.226562 114.734375 92.226562 117.714844 C 92.226562 120.691406 88.890625 122.9375 84.46875 122.9375 Z M 69.042969 116.359375 C 66.550781 116.359375 65.21875 117.402344 65.15625 117.71875 C 65.214844 118.023438 66.546875 119.066406 69.042969 119.066406 L 84.46875 119.066406 C 86.964844 119.066406 88.292969 118.023438 88.355469 117.707031 C 88.292969 117.402344 86.960938 116.363281 84.46875 116.363281 L 69.042969 116.363281 Z M 69.042969 116.359375 " fill-opacity="1" fill-rule="nonzero"/></g><path fill="#3c3c3b" d="M 129.160156 140.296875 L 134.027344 145.023438 L 121.246094 158.183594 L 116.375 153.453125 Z M 129.160156 140.296875 " fill-opacity="1" fill-rule="nonzero"/><path fill="#3c3c3b" d="M 121.25 160.109375 C 120.761719 160.109375 120.277344 159.929688 119.902344 159.5625 L 115.03125 154.835938 C 114.664062 154.476562 114.453125 153.988281 114.445312 153.472656 C 114.4375 152.960938 114.636719 152.464844 114.992188 152.097656 L 127.777344 138.941406 C 128.523438 138.171875 129.746094 138.15625 130.511719 138.898438 L 135.378906 143.628906 C 135.75 143.984375 135.960938 144.472656 135.96875 144.988281 C 135.976562 145.5 135.777344 145.996094 135.417969 146.363281 L 122.636719 159.523438 C 122.257812 159.914062 121.753906 160.109375 121.25 160.109375 Z M 119.117188 153.40625 L 121.207031 155.4375 L 131.292969 145.054688 L 129.203125 143.023438 Z M 119.117188 153.40625 " fill-opacity="1" fill-rule="nonzero"/><path fill="#3c3c3b" d="M 143.597656 149.726562 C 142.332031 151.027344 139.4375 150.269531 137.128906 148.027344 L 126.066406 137.277344 C 123.757812 135.035156 122.914062 132.164062 124.179688 130.863281 C 125.445312 129.558594 128.339844 130.320312 130.648438 132.5625 L 141.714844 143.308594 C 144.019531 145.550781 144.863281 148.421875 143.597656 149.726562 Z M 143.597656 149.726562 " fill-opacity="1" fill-rule="nonzero"/><path fill="#3c3c3b" d="M 141.886719 152.296875 C 139.921875 152.296875 137.640625 151.21875 135.78125 149.414062 L 124.714844 138.664062 C 123.363281 137.351562 122.375 135.789062 121.925781 134.261719 C 121.371094 132.378906 121.6875 130.648438 122.792969 129.511719 C 123.570312 128.714844 124.644531 128.289062 125.894531 128.289062 C 127.855469 128.289062 130.136719 129.367188 131.996094 131.171875 L 143.0625 141.921875 C 146.234375 145 147.0625 148.9375 144.988281 151.074219 C 144.210938 151.875 143.136719 152.296875 141.886719 152.296875 Z M 125.894531 132.160156 C 125.6875 132.160156 125.585938 132.199219 125.5625 132.214844 C 125.394531 132.476562 125.625 134.152344 127.414062 135.890625 L 138.480469 146.640625 C 139.75 147.875 141.105469 148.425781 141.886719 148.425781 C 142.09375 148.425781 142.195312 148.386719 142.214844 148.371094 C 142.382812 148.113281 142.152344 146.433594 140.363281 144.699219 L 129.300781 133.949219 C 128.027344 132.714844 126.671875 132.160156 125.894531 132.160156 Z M 125.894531 132.160156 " fill-opacity="1" fill-rule="nonzero"/><g clip-path="url(#97734dc487)"><path fill="#29abe3" d="M 76.753906 262.433594 C 72.042969 262.433594 67.34375 261.90625 62.789062 260.867188 C 61.746094 260.628906 61.097656 259.589844 61.332031 258.546875 C 61.570312 257.507812 62.605469 256.851562 63.652344 257.09375 C 67.921875 258.066406 72.332031 258.5625 76.753906 258.5625 C 109.089844 258.5625 135.394531 232.257812 135.394531 199.921875 C 135.394531 167.589844 109.089844 141.28125 76.753906 141.28125 C 72.332031 141.28125 67.921875 141.777344 63.648438 142.753906 C 62.609375 142.992188 61.570312 142.339844 61.332031 141.296875 C 61.09375 140.253906 61.746094 139.214844 62.789062 138.976562 C 67.34375 137.941406 72.042969 137.414062 76.753906 137.414062 C 111.222656 137.414062 139.265625 165.453125 139.265625 199.921875 C 139.265625 234.390625 111.222656 262.433594 76.753906 262.433594 Z M 76.753906 262.433594 " fill-opacity="1" fill-rule="nonzero"/></g><path fill="#29abe3" d="M 76.753906 201.855469 C 76.402344 201.855469 76.046875 201.761719 75.738281 201.566406 C 75.167969 201.214844 74.820312 200.59375 74.820312 199.921875 L 74.820312 172.601562 C 74.820312 171.535156 75.683594 170.667969 76.753906 170.667969 C 77.824219 170.667969 78.691406 171.535156 78.691406 172.601562 L 78.691406 196.789062 L 92.992188 189.640625 C 93.949219 189.160156 95.113281 189.550781 95.589844 190.503906 C 96.066406 191.460938 95.679688 192.625 94.726562 193.101562 L 77.617188 201.652344 C 77.347656 201.789062 77.050781 201.855469 76.753906 201.855469 Z M 76.753906 201.855469 " fill-opacity="1" fill-rule="nonzero"/><path fill="#3c3c3b" d="M 46.539062 162.367188 L 29.246094 162.367188 C 28.175781 162.367188 27.308594 161.503906 27.308594 160.433594 C 27.308594 159.363281 28.175781 158.5 29.246094 158.5 L 46.539062 158.5 C 47.609375 158.5 48.472656 159.363281 48.472656 160.433594 C 48.472656 161.503906 47.609375 162.367188 46.539062 162.367188 Z M 46.539062 162.367188 " fill-opacity="1" fill-rule="nonzero"/><path fill="#3c3c3b" d="M 50.9375 251.5 L 33.644531 251.5 C 32.574219 251.5 31.707031 250.632812 31.707031 249.566406 C 31.707031 248.496094 32.574219 247.628906 33.644531 247.628906 L 50.9375 247.628906 C 52.007812 247.628906 52.871094 248.496094 52.871094 249.566406 C 52.871094 250.632812 52.007812 251.5 50.9375 251.5 Z M 50.9375 251.5 " fill-opacity="1" fill-rule="nonzero"/><path fill="#3c3c3b" d="M 32.144531 207.34375 L 2.902344 207.34375 C 1.832031 207.34375 0.964844 206.476562 0.964844 205.410156 C 0.964844 204.339844 1.832031 203.472656 2.902344 203.472656 L 32.144531 203.472656 C 33.214844 203.472656 34.082031 204.339844 34.082031 205.410156 C 34.082031 206.476562 33.214844 207.34375 32.144531 207.34375 Z M 32.144531 207.34375 " fill-opacity="1" fill-rule="nonzero"/><path fill="#3c3c3b" d="M 34.304688 223.09375 L 5.0625 223.09375 C 3.992188 223.09375 3.125 222.226562 3.125 221.15625 C 3.125 220.089844 3.992188 219.222656 5.0625 219.222656 L 34.304688 219.222656 C 35.375 219.222656 36.242188 220.089844 36.242188 221.15625 C 36.242188 222.226562 35.375 223.09375 34.304688 223.09375 Z M 34.304688 223.09375 " fill-opacity="1" fill-rule="nonzero"/><path fill="#3c3c3b" d="M 42.953125 238.667969 L 13.710938 238.667969 C 12.640625 238.667969 11.773438 237.804688 11.773438 236.734375 C 11.773438 235.664062 12.640625 234.800781 13.710938 234.800781 L 42.953125 234.800781 C 44.019531 234.800781 44.886719 235.664062 44.886719 236.734375 C 44.886719 237.804688 44.019531 238.667969 42.953125 238.667969 Z M 42.953125 238.667969 " fill-opacity="1" fill-rule="nonzero"/><path fill="#3c3c3b" d="M 37.890625 175.871094 L 10.367188 175.871094 C 9.296875 175.871094 8.429688 175.003906 8.429688 173.9375 C 8.429688 172.867188 9.296875 172 10.367188 172 L 37.890625 172 C 38.960938 172 39.828125 172.867188 39.828125 173.9375 C 39.828125 175.003906 38.960938 175.871094 37.890625 175.871094 Z M 37.890625 175.871094 " fill-opacity="1" fill-rule="nonzero"/><path fill="#3c3c3b" d="M 33.082031 191.167969 L 1.960938 191.167969 C 0.890625 191.167969 0.0273438 190.304688 0.0273438 189.234375 C 0.0273438 188.164062 0.890625 187.296875 1.960938 187.296875 L 33.082031 187.296875 C 34.152344 187.296875 35.019531 188.164062 35.019531 189.234375 C 35.019531 190.304688 34.152344 191.167969 33.082031 191.167969 Z M 33.082031 191.167969 " fill-opacity="1" fill-rule="nonzero"/><g fill="#112d55" fill-opacity="1"><g transform="translate(152.389421, 208.504129)"><g><path d="M 13.375 0 L 5.03125 0 L 5.03125 -39.984375 L 27.953125 -39.984375 L 27.953125 -33.03125 L 13.375 -33.03125 L 13.375 -22.71875 L 26.9375 -22.71875 L 26.9375 -15.8125 L 13.375 -15.8125 Z M 13.375 0 "/></g></g></g><g fill="#112d55" fill-opacity="1"><g transform="translate(183.126838, 208.504129)"><g><path d="M 23.796875 0 L 22.171875 -4.15625 L 21.953125 -4.15625 C 20.554688 -2.382812 19.113281 -1.15625 17.625 -0.46875 C 16.132812 0.207031 14.195312 0.546875 11.8125 0.546875 C 8.875 0.546875 6.5625 -0.289062 4.875 -1.96875 C 3.195312 -3.644531 2.359375 -6.035156 2.359375 -9.140625 C 2.359375 -12.378906 3.488281 -14.769531 5.75 -16.3125 C 8.019531 -17.851562 11.445312 -18.707031 16.03125 -18.875 L 21.328125 -19.03125 L 21.328125 -20.375 C 21.328125 -23.46875 19.742188 -25.015625 16.578125 -25.015625 C 14.128906 -25.015625 11.253906 -24.28125 7.953125 -22.8125 L 5.203125 -28.4375 C 8.710938 -30.28125 12.613281 -31.203125 16.90625 -31.203125 C 21 -31.203125 24.140625 -30.304688 26.328125 -28.515625 C 28.515625 -26.734375 29.609375 -24.019531 29.609375 -20.375 L 29.609375 0 Z M 21.328125 -14.171875 L 18.109375 -14.0625 C 15.679688 -13.988281 13.875 -13.550781 12.6875 -12.75 C 11.5 -11.945312 10.90625 -10.722656 10.90625 -9.078125 C 10.90625 -6.722656 12.253906 -5.546875 14.953125 -5.546875 C 16.890625 -5.546875 18.4375 -6.101562 19.59375 -7.21875 C 20.75 -8.332031 21.328125 -9.8125 21.328125 -11.65625 Z M 21.328125 -14.171875 "/></g></g></g><g fill="#112d55" fill-opacity="1"><g transform="translate(216.954413, 208.504129)"><g><path d="M 25.703125 -9.078125 C 25.703125 -5.941406 24.613281 -3.550781 22.4375 -1.90625 C 20.257812 -0.269531 17 0.546875 12.65625 0.546875 C 10.4375 0.546875 8.539062 0.394531 6.96875 0.09375 C 5.40625 -0.207031 3.941406 -0.648438 2.578125 -1.234375 L 2.578125 -8.125 C 4.117188 -7.394531 5.859375 -6.78125 7.796875 -6.28125 C 9.742188 -5.789062 11.457031 -5.546875 12.9375 -5.546875 C 15.957031 -5.546875 17.46875 -6.421875 17.46875 -8.171875 C 17.46875 -8.828125 17.265625 -9.359375 16.859375 -9.765625 C 16.460938 -10.179688 15.769531 -10.648438 14.78125 -11.171875 C 13.800781 -11.691406 12.492188 -12.296875 10.859375 -12.984375 C 8.503906 -13.972656 6.773438 -14.882812 5.671875 -15.71875 C 4.566406 -16.5625 3.765625 -17.523438 3.265625 -18.609375 C 2.765625 -19.691406 2.515625 -21.023438 2.515625 -22.609375 C 2.515625 -25.328125 3.566406 -27.425781 5.671875 -28.90625 C 7.773438 -30.394531 10.757812 -31.140625 14.625 -31.140625 C 18.3125 -31.140625 21.894531 -30.335938 25.375 -28.734375 L 22.859375 -22.71875 C 21.328125 -23.375 19.894531 -23.910156 18.5625 -24.328125 C 17.238281 -24.753906 15.882812 -24.96875 14.5 -24.96875 C 12.03125 -24.96875 10.796875 -24.300781 10.796875 -22.96875 C 10.796875 -22.21875 11.191406 -21.566406 11.984375 -21.015625 C 12.785156 -20.472656 14.523438 -19.664062 17.203125 -18.59375 C 19.585938 -17.625 21.335938 -16.71875 22.453125 -15.875 C 23.566406 -15.039062 24.382812 -14.078125 24.90625 -12.984375 C 25.4375 -11.890625 25.703125 -10.585938 25.703125 -9.078125 Z M 25.703125 -9.078125 "/></g></g></g><g fill="#112d55" fill-opacity="1"><g transform="translate(244.793106, 208.504129)"><g><path d="M 17.25 -6.09375 C 18.707031 -6.09375 20.457031 -6.414062 22.5 -7.0625 L 22.5 -0.84375 C 20.425781 0.0820312 17.875 0.546875 14.84375 0.546875 C 11.507812 0.546875 9.082031 -0.296875 7.5625 -1.984375 C 6.039062 -3.671875 5.28125 -6.203125 5.28125 -9.578125 L 5.28125 -24.3125 L 1.28125 -24.3125 L 1.28125 -27.84375 L 5.875 -30.625 L 8.28125 -37.078125 L 13.625 -37.078125 L 13.625 -30.578125 L 22.171875 -30.578125 L 22.171875 -24.3125 L 13.625 -24.3125 L 13.625 -9.578125 C 13.625 -8.390625 13.953125 -7.507812 14.609375 -6.9375 C 15.273438 -6.375 16.15625 -6.09375 17.25 -6.09375 Z M 17.25 -6.09375 "/></g></g></g><g fill="#56a0ff" fill-opacity="1"><g transform="translate(269.093618, 208.504129)"><g><path d="M 13.515625 -21.171875 L 16.296875 -21.171875 C 18.898438 -21.171875 20.847656 -21.679688 22.140625 -22.703125 C 23.441406 -23.734375 24.09375 -25.234375 24.09375 -27.203125 C 24.09375 -29.191406 23.550781 -30.660156 22.46875 -31.609375 C 21.382812 -32.554688 19.679688 -33.03125 17.359375 -33.03125 L 13.515625 -33.03125 Z M 32.65625 -27.515625 C 32.65625 -23.210938 31.304688 -19.921875 28.609375 -17.640625 C 25.921875 -15.359375 22.097656 -14.21875 17.140625 -14.21875 L 13.515625 -14.21875 L 13.515625 0 L 5.03125 0 L 5.03125 -39.984375 L 17.796875 -39.984375 C 22.648438 -39.984375 26.335938 -38.9375 28.859375 -36.84375 C 31.390625 -34.757812 32.65625 -31.648438 32.65625 -27.515625 Z M 32.65625 -27.515625 "/></g></g></g><g fill="#56a0ff" fill-opacity="1"><g transform="translate(304.261162, 208.504129)"><g><path d="M 23.796875 0 L 22.171875 -4.15625 L 21.953125 -4.15625 C 20.554688 -2.382812 19.113281 -1.15625 17.625 -0.46875 C 16.132812 0.207031 14.195312 0.546875 11.8125 0.546875 C 8.875 0.546875 6.5625 -0.289062 4.875 -1.96875 C 3.195312 -3.644531 2.359375 -6.035156 2.359375 -9.140625 C 2.359375 -12.378906 3.488281 -14.769531 5.75 -16.3125 C 8.019531 -17.851562 11.445312 -18.707031 16.03125 -18.875 L 21.328125 -19.03125 L 21.328125 -20.375 C 21.328125 -23.46875 19.742188 -25.015625 16.578125 -25.015625 C 14.128906 -25.015625 11.253906 -24.28125 7.953125 -22.8125 L 5.203125 -28.4375 C 8.710938 -30.28125 12.613281 -31.203125 16.90625 -31.203125 C 21 -31.203125 24.140625 -30.304688 26.328125 -28.515625 C 28.515625 -26.734375 29.609375 -24.019531 29.609375 -20.375 L 29.609375 0 Z M 21.328125 -14.171875 L 18.109375 -14.0625 C 15.679688 -13.988281 13.875 -13.550781 12.6875 -12.75 C 11.5 -11.945312 10.90625 -10.722656 10.90625 -9.078125 C 10.90625 -6.722656 12.253906 -5.546875 14.953125 -5.546875 C 16.890625 -5.546875 18.4375 -6.101562 19.59375 -7.21875 C 20.75 -8.332031 21.328125 -9.8125 21.328125 -11.65625 Z M 21.328125 -14.171875 "/></g></g></g><g fill="#56a0ff" fill-opacity="1"><g transform="translate(338.088736, 208.504129)"><g><path d="M 0 -30.578125 L 9.140625 -30.578125 L 14.90625 -13.375 C 15.394531 -11.875 15.734375 -10.101562 15.921875 -8.0625 L 16.078125 -8.0625 C 16.273438 -9.945312 16.664062 -11.71875 17.25 -13.375 L 22.921875 -30.578125 L 31.859375 -30.578125 L 18.921875 3.90625 C 17.734375 7.101562 16.039062 9.492188 13.84375 11.078125 C 11.65625 12.660156 9.09375 13.453125 6.15625 13.453125 C 4.71875 13.453125 3.304688 13.296875 1.921875 12.984375 L 1.921875 6.375 C 2.921875 6.613281 4.015625 6.734375 5.203125 6.734375 C 6.671875 6.734375 7.957031 6.28125 9.0625 5.375 C 10.164062 4.46875 11.03125 3.101562 11.65625 1.28125 L 12.140625 -0.21875 Z M 0 -30.578125 "/></g></g></g></svg>